<svg width="30" height="30" viewBox="0 0 30 30" fill="none" xmlns="http://www.w3.org/2000/svg">
<path d="M15 10.5C12.5139 10.5 10.5 12.5147 10.5 15C10.5 17.486 12.5147 19.5 15 19.5C17.486 19.5 19.5 17.4853 19.5 15C19.5 12.514 17.4854 10.5 15 10.5ZM15 7.5C19.1406 7.5 22.5 10.8556 22.5 15C22.5 19.1408 19.1444 22.5 15 22.5C10.8593 22.5 7.5 19.1444 7.5 15C7.5 10.8593 10.8557 7.5 15 7.5ZM24.75 7.12372C24.75 8.15889 23.9088 8.99875 22.875 8.99875C21.8399 8.99875 21 8.1576 21 7.12372C21 6.08985 21.8411 5.25 22.875 5.25C23.9075 5.24869 24.75 6.08985 24.75 7.12372ZM15 3C11.2883 3 10.6833 3.00982 8.95693 3.0867C7.78076 3.14191 6.99233 3.3001 6.25977 3.5845C5.60877 3.83698 5.13917 4.13847 4.63881 4.63882C4.13654 5.1411 3.83559 5.60945 3.58413 6.26075C3.29907 6.99498 3.14093 7.78217 3.0867 8.95673C3.00908 10.6128 3 11.1916 3 15C3 18.7118 3.00983 19.3167 3.08669 21.0429C3.14193 22.2186 3.30033 23.0082 3.58404 23.739C3.83718 24.3909 4.13928 24.8616 4.63722 25.3596C5.14148 25.8632 5.61122 26.1651 6.25634 26.4141C6.99782 26.7008 7.78575 26.8591 8.95671 26.9133C10.6128 26.9909 11.1916 27 15 27C18.7118 27 19.3167 26.9901 21.0429 26.9133C22.2161 26.8582 23.0063 26.6994 23.739 26.4159C24.3891 26.1634 24.8613 25.8603 25.3596 25.3628C25.8639 24.8577 26.1653 24.3891 26.4146 23.7425C26.7005 23.0037 26.8592 22.2147 26.9133 21.0434C26.9909 19.3872 27 18.8083 27 15C27 11.2883 26.9901 10.6833 26.9133 8.95706C26.8581 7.78359 26.6993 6.99224 26.4155 6.25977C26.1636 5.61057 25.8611 5.13952 25.3611 4.63882C24.858 4.13572 24.3909 3.8354 23.7392 3.58413C23.0055 3.29931 22.2171 3.14094 21.0432 3.08671C19.3872 3.00907 18.8084 3 15 3ZM15 0C19.0749 0 19.5837 0.0149999 21.1838 0.0899999C22.7799 0.163755 23.8688 0.41625 24.825 0.7875C25.8137 1.16876 26.6487 1.68375 27.4824 2.51749C28.3149 3.35125 28.83 4.18875 29.2125 5.175C29.5824 6.13 29.835 7.22 29.91 8.81625C29.9813 10.4163 30 10.925 30 15C30 19.0751 29.985 19.5837 29.91 21.1838C29.8362 22.78 29.5824 23.8687 29.2125 24.825C28.8312 25.8138 28.3149 26.6487 27.4824 27.4825C26.6487 28.315 25.8099 28.83 24.825 29.2125C23.8688 29.5826 22.7799 29.835 21.1838 29.91C19.5837 29.9813 19.0749 30 15 30C10.925 30 10.4162 29.985 8.81625 29.91C7.22 29.8362 6.1325 29.5826 5.175 29.2125C4.18749 28.8312 3.35124 28.315 2.5175 27.4825C1.68375 26.6487 1.17 25.81 0.7875 24.825C0.41625 23.8687 0.165 22.78 0.0900003 21.1838C0.0187503 19.5837 0 19.0751 0 15C0 10.925 0.0150003 10.4163 0.0900003 8.81625C0.16374 7.21875 0.41625 6.13125 0.7875 5.175C1.16874 4.1875 1.68375 3.35125 2.5175 2.51749C3.35124 1.68375 4.18875 1.17 5.175 0.7875C6.13125 0.41625 7.21875 0.165 8.81625 0.0899999C10.4162 0.0187499 10.925 0 15 0Z" fill="white"/>
</svg>
