<svg width="30" height="30" viewBox="0 0 30 30" fill="none" xmlns="http://www.w3.org/2000/svg">
<path d="M15.0015 30C6.71719 30 0.00146484 23.2842 0.00146484 15C0.00146484 6.71572 6.71719 0 15.0015 0C23.2857 0 30.0015 6.71572 30.0015 15C30.0015 23.2842 23.2857 30 15.0015 30ZM10.3367 16.7562L10.3557 16.7442C11.2253 19.615 11.66 21.0506 11.66 21.0506C11.8285 21.5163 12.06 21.5994 12.3409 21.5615C12.6217 21.5233 12.7708 21.3714 12.9541 21.1945C12.9541 21.1945 13.5486 20.6208 14.7375 19.4734L18.5638 22.3047C19.261 22.6899 19.7644 22.4911 19.9375 21.6566L22.4242 9.92462C22.6987 8.83263 22.2172 8.39466 21.3705 8.74131L6.77095 14.3806C5.77493 14.781 5.77975 15.3383 6.58961 15.5866L10.3367 16.7562Z" fill="#FEFEFE"/>
</svg>
