<svg width="30.000000" height="24.000000" viewBox="0 0 30 24" fill="none" xmlns="http://www.w3.org/2000/svg" xmlns:xlink="http://www.w3.org/1999/xlink">
	<desc>
			Created with Pixso.
	</desc>
	<defs>
		<clipPath id="clip0_143">
			<rect id="632c7aabce28dbbff11d314f_quote-icon.svg" width="30.000000" height="24.000000" transform="translate(0.000000 -0.968750)" fill="white" fill-opacity="0"/>
		</clipPath>
		<linearGradient id="paint_linear_0_144_0" x1="0.183594" y1="11.031654" x2="29.915249" y2="11.031654" gradientUnits="userSpaceOnUse">
			<stop stop-color="#6000DB"/>
			<stop offset="1.000000" stop-color="#4600A0"/>
		</linearGradient>
	</defs>
	<g clip-path="url(#clip0_143)">
		<path id="Vector" d="M24.13 11.03C25.84 11.14 27.19 11.71 28.18 12.76C29.17 13.75 29.67 15.05 29.67 16.64C29.67 18.51 29.09 19.95 27.93 20.94C26.77 21.93 25.45 22.42 23.97 22.42C23.8 22.42 23.64 22.42 23.47 22.42C22.31 22.42 21.32 22.18 20.5 21.68C19.73 21.19 19.07 20.58 18.51 19.86C18.02 19.09 17.66 18.24 17.44 17.3C17.22 16.31 17.11 15.32 17.11 14.33C17.11 12.84 17.39 11.33 17.94 9.79C18.49 8.25 19.23 6.81 20.17 5.49C21.16 4.12 22.26 2.93 23.47 1.94C24.74 0.89 26.09 0.12 27.52 -0.37L29.91 2.93C28.54 3.87 27.33 5.05 26.28 6.48C25.23 7.86 24.52 9.37 24.13 11.03ZM7.2 11.03C8.91 11.14 10.26 11.71 11.25 12.76C12.24 13.75 12.73 15.05 12.73 16.64C12.73 18.51 12.15 19.95 11 20.94C9.84 21.93 8.49 22.42 6.95 22.42C6.79 22.42 6.62 22.42 6.46 22.42C5.3 22.42 4.31 22.18 3.48 21.68C2.71 21.19 2.08 20.58 1.58 19.86C1.09 19.09 0.73 18.24 0.51 17.3C0.29 16.31 0.18 15.32 0.18 14.33C0.18 12.84 0.45 11.33 1 9.79C1.56 8.25 2.3 6.81 3.23 5.49C4.23 4.12 5.33 2.93 6.54 1.94C7.8 0.89 9.15 0.12 10.59 -0.37L12.98 2.93C11.6 3.87 10.39 5.05 9.35 6.48C8.3 7.86 7.58 9.37 7.2 11.03Z" fill="url(#paint_linear_0_144_0)" fill-opacity="1.000000" fill-rule="evenodd"/>
	</g>
</svg>
