<svg width="72.000000" height="72.000000" viewBox="0 0 72 72" fill="none" xmlns="http://www.w3.org/2000/svg" xmlns:xlink="http://www.w3.org/1999/xlink">
	<desc>
			Created with Pixso.
	</desc>
	<defs>
		<clipPath id="clip50_43">
			<rect id="svg" width="72.000000" height="72.000000" fill="white" fill-opacity="0"/>
		</clipPath>
	</defs>
	<g clip-path="url(#clip50_43)">
		<path id="path" d="M36 30.6L27.9 36L36 41.39L44.09 36L36 30.6ZM49.5 32.39L57.59 27L39 14.6L39 25.39L49.5 32.39ZM60 32.6L54.9 36L60 39.39L60 32.6ZM49.5 39.6L39 46.6L39 57.39L57.59 45L49.5 39.6ZM33 25.39L33 14.6L14.4 27L22.5 32.39L33 25.39ZM14.4 45L33 57.39L33 46.6L22.5 39.6L14.4 45ZM17.09 36L12 32.6L12 39.39L17.09 36ZM6 27C6 25.99 6.5 25.06 7.33 24.5L34.33 6.5C35.34 5.83 36.65 5.83 37.66 6.5L64.66 24.5C65.49 25.06 66 25.99 66 27L66 45C66 46 65.49 46.93 64.66 47.49L37.66 65.49C36.65 66.16 35.34 66.16 34.33 65.49L7.33 47.49C6.5 46.93 6 46 6 45L6 27Z" fill="#FFFFFF" fill-opacity="1.000000" fill-rule="nonzero"/>
	</g>
</svg>
