<svg width="72.000000" height="72.000000" viewBox="0 0 72 72" fill="none" xmlns="http://www.w3.org/2000/svg" xmlns:xlink="http://www.w3.org/1999/xlink">
	<desc>
			Created with Pixso.
	</desc>
	<defs>
		<clipPath id="clip50_45">
			<rect id="svg" width="72.000000" height="72.000000" fill="white" fill-opacity="0"/>
		</clipPath>
	</defs>
	<g clip-path="url(#clip50_45)">
		<path id="path" d="M57.91 16.01C53.8 14.13 49.44 12.76 44.88 12C44.31 12.98 43.67 14.32 43.23 15.37C38.39 14.67 33.58 14.67 28.8 15.37C28.36 14.32 27.69 12.98 27.15 12C22.56 12.76 18.2 14.13 14.12 16.01C5.88 28.17 3.65 40.04 4.76 51.76C10.24 55.74 15.52 58.16 20.72 59.75C21.99 58.03 23.14 56.18 24.12 54.24C22.24 53.54 20.46 52.68 18.74 51.66C19.19 51.35 19.63 51 20.05 50.65C30.43 55.39 41.67 55.39 51.92 50.65C52.37 51 52.78 51.35 53.23 51.66C51.51 52.68 49.72 53.54 47.84 54.24C48.83 56.18 49.98 58.03 51.25 59.75C56.44 58.16 61.76 55.74 67.2 51.76C68.57 38.2 65.04 26.42 57.91 16.01ZM25.56 44.53C22.44 44.53 19.89 41.7 19.89 38.23C19.89 34.76 22.37 31.93 25.56 31.93C28.71 31.93 31.29 34.76 31.22 38.23C31.22 41.7 28.71 44.53 25.56 44.53ZM46.48 44.53C43.36 44.53 40.81 41.7 40.81 38.23C40.81 34.76 43.29 31.93 46.48 31.93C49.63 31.93 52.21 34.76 52.14 38.23C52.14 41.7 49.66 44.53 46.48 44.53Z" fill="#FFFFFF" fill-opacity="1.000000" fill-rule="nonzero"/>
	</g>
</svg>
