<svg width="72.000000" height="72.000000" viewBox="0 0 72 72" fill="none" xmlns="http://www.w3.org/2000/svg" xmlns:xlink="http://www.w3.org/1999/xlink">
	<desc>
			Created with Pixso.
	</desc>
	<defs>
		<clipPath id="clip50_41">
			<rect id="svg" width="72.000000" height="72.000000" fill="white" fill-opacity="0"/>
		</clipPath>
	</defs>
	<g clip-path="url(#clip50_41)">
		<path id="path" d="M36 27C31.03 27 27 31.02 27 36C27 40.97 31.03 45 36 45C40.97 45 45 40.97 45 36C45 31.02 40.97 27 36 27ZM36 21C44.28 21 51 27.71 51 36C51 44.28 44.29 51 36 51C27.72 51 21 44.28 21 36C21 27.71 27.71 21 36 21ZM55.5 20.24C55.5 22.31 53.82 23.99 51.75 23.99C49.68 23.99 48 22.31 48 20.24C48 18.17 49.68 16.5 51.75 16.5C53.81 16.49 55.5 18.17 55.5 20.24ZM36 12C28.57 12 27.36 12.01 23.91 12.17C21.56 12.28 19.98 12.6 18.52 13.16C17.22 13.67 16.28 14.27 15.28 15.27C14.27 16.28 13.67 17.21 13.17 18.52C12.6 19.99 12.28 21.56 12.17 23.91C12.02 27.22 12 28.38 12 36C12 43.42 12.02 44.63 12.17 48.08C12.28 50.43 12.6 52.01 13.17 53.47C13.67 54.78 14.28 55.72 15.27 56.71C16.28 57.72 17.22 58.33 18.51 58.82C19.99 59.4 21.57 59.71 23.91 59.82C27.22 59.98 28.38 60 36 60C43.42 60 44.63 59.98 48.08 59.82C50.43 59.71 52.01 59.39 53.48 58.83C54.78 58.32 55.72 57.72 56.72 56.72C57.73 55.71 58.33 54.77 58.83 53.48C59.4 52 59.72 50.42 59.82 48.08C59.98 44.77 60 43.61 60 36C60 28.57 59.98 27.36 59.82 23.91C59.71 21.56 59.4 19.98 58.83 18.51C58.33 17.22 57.72 16.27 56.72 15.27C55.71 14.27 54.78 13.67 53.48 13.16C52.01 12.59 50.43 12.28 48.08 12.17C44.77 12.01 43.61 12 36 12ZM36 6C44.15 6 45.17 6.03 48.37 6.18C51.56 6.32 53.74 6.83 55.65 7.57C57.63 8.33 59.3 9.36 60.96 11.03C62.63 12.7 63.66 14.37 64.42 16.35C65.16 18.26 65.67 20.43 65.82 23.63C65.96 26.83 66 27.85 66 36C66 44.15 65.97 45.16 65.82 48.36C65.67 51.56 65.16 53.73 64.42 55.65C63.66 57.62 62.63 59.29 60.96 60.96C59.3 62.63 57.62 63.66 55.65 64.42C53.74 65.16 51.56 65.67 48.37 65.81C45.17 65.96 44.15 66 36 66C27.85 66 26.83 65.97 23.63 65.81C20.44 65.67 18.26 65.16 16.35 64.42C14.37 63.66 12.7 62.63 11.03 60.96C9.37 59.29 8.34 57.62 7.57 55.65C6.83 53.73 6.33 51.56 6.18 48.36C6.04 45.16 6 44.15 6 36C6 27.85 6.03 26.83 6.18 23.63C6.33 20.43 6.83 18.26 7.57 16.35C8.34 14.37 9.37 12.7 11.03 11.03C12.7 9.36 14.38 8.33 16.35 7.57C18.26 6.83 20.44 6.32 23.63 6.18C26.83 6.03 27.85 6 36 6Z" fill="#FFFFFF" fill-opacity="1.000000" fill-rule="nonzero"/>
	</g>
</svg>
