<svg width="45.000000" height="35.000000" viewBox="0 0 45 35" fill="none" xmlns="http://www.w3.org/2000/svg" xmlns:xlink="http://www.w3.org/1999/xlink">
	<desc>
			Created with Pixso.
	</desc>
	<defs>
		<clipPath id="clip0_223">
			<rect id="632e0982cbeeaebfe010341e_web-design-icon.svg" width="45.000000" height="35.000000" transform="translate(0.000000 -0.015625)" fill="white" fill-opacity="0"/>
		</clipPath>
		<linearGradient id="paint_linear_0_224_0" x1="1.000000" y1="15.422726" x2="43.593361" y2="15.422726" gradientUnits="userSpaceOnUse">
			<stop stop-color="#6000DB"/>
			<stop offset="1.000000" stop-color="#4600A0"/>
		</linearGradient>
		<linearGradient id="paint_linear_0_225_0" x1="20.960938" y1="25.257866" x2="22.788893" y2="25.257866" gradientUnits="userSpaceOnUse">
			<stop stop-color="#6000DB"/>
			<stop offset="1.000000" stop-color="#4600A0"/>
		</linearGradient>
		<linearGradient id="paint_linear_0_225_1" x1="20.960938" y1="25.257866" x2="22.788893" y2="25.257866" gradientUnits="userSpaceOnUse">
			<stop stop-color="#6000DB"/>
			<stop offset="1.000000" stop-color="#4600A0"/>
		</linearGradient>
		<linearGradient id="paint_linear_0_226_0" x1="11.000000" y1="34.359406" x2="32.872978" y2="34.359406" gradientUnits="userSpaceOnUse">
			<stop stop-color="#6000DB"/>
			<stop offset="1.000000" stop-color="#4600A0"/>
		</linearGradient>
	</defs>
	<g clip-path="url(#clip0_223)">
		<path id="Vector" d="M43.59 0.98L43.59 29.85L1 29.85L1 0.98L43.59 0.98Z" stroke="url(#paint_linear_0_224_0)" stroke-opacity="1.000000" stroke-width="1.200000"/>
		<path id="Vector" d="M21.87 26.17C22.37 26.17 22.78 25.76 22.78 25.25C22.78 24.75 22.37 24.34 21.87 24.34C21.37 24.34 20.96 24.75 20.96 25.25C20.96 25.76 21.37 26.17 21.87 26.17Z" fill="url(#paint_linear_0_225_0)" fill-opacity="1.000000" fill-rule="nonzero"/>
		<path id="Vector" d="M21.87 26.17C21.37 26.17 20.96 25.76 20.96 25.25C20.96 24.75 21.37 24.34 21.87 24.34C22.37 24.34 22.78 24.75 22.78 25.25C22.78 25.76 22.37 26.17 21.87 26.17Z" stroke="url(#paint_linear_0_225_1)" stroke-opacity="1.000000" stroke-width="1.000000"/>
		<path id="Vector" d="M11 33.85L32.87 33.85" stroke="url(#paint_linear_0_226_0)" stroke-opacity="1.000000" stroke-width="1.000000"/>
	</g>
</svg>
