<svg width="44.000000" height="54.000000" viewBox="0 0 44 54" fill="none" xmlns="http://www.w3.org/2000/svg" xmlns:xlink="http://www.w3.org/1999/xlink">
	<desc>
			Created with Pixso.
	</desc>
	<defs>
		<linearGradient id="paint_linear_0_230_0" x1="1.000000" y1="26.985912" x2="41.996208" y2="26.985912" gradientUnits="userSpaceOnUse">
			<stop stop-color="#6000DB"/>
			<stop offset="1.000000" stop-color="#4600A0"/>
		</linearGradient>
	</defs>
	<path id="" d="M43.15 22.03L39.43 0.81L39.25 -0.18L32.95 0.95L36.16 19.46L26.05 4.68L25.49 3.85L20.24 7.48L31.07 23.32L15.24 14L14.38 13.5L11.11 18.96L27.55 28.63L10.24 23.99L9.26 23.72L7.67 29.93L25.88 34.78L8.14 33.16L7.15 33.07L6.54 39.43L19.86 40.64L6.42 40.64L6.42 47.07L29.05 47.01L29.05 41.48L29.07 41.48L29.58 35.41L30.55 31.84L30.55 48.55L5.55 48.55L5.55 30.61L0 30.61L0 53.88L2.01 53.98L36.05 53.98L36.05 30.61L30.88 30.61L31.16 29.6L31.09 29.58L33.36 25.81L37.46 22.97L43.15 22.03ZM36.66 22.31L36.82 22.2L36.57 21.83L25.79 6.07L25.23 5.24L21.63 7.74L32.66 23.87L33.1 24.51L33.22 24.69L33.3 24.63L34.04 24.12L36.66 22.31ZM37.83 21.9L41.01 21.37L42 21.21L41.82 20.22L38.62 1.96L38.44 0.98L37.46 1.16L34.11 1.76L37.52 21.45L37.61 21.94L37.83 21.9ZM31.63 24.81L14.73 14.86L13 17.75L12.49 18.61L13.35 19.11L30.24 29.06L31.97 26.17L32.46 25.36L32.49 25.32L32.4 25.26L31.63 24.81ZM5.55 49.55L4.55 49.55L4.55 31.61L1 31.61L1 52.93L2.04 52.98L35.05 52.98L35.05 31.61L31.55 31.61L31.55 49.55L5.55 49.55ZM9.73 25.92L8.88 29.22L28.78 34.52L29.67 31.27L29.93 30.31L28.96 30.05L10.94 25.21L9.98 24.95L9.73 25.92ZM7.72 37.53L8.05 34.16L28.52 36.03L28.24 39.4L28.15 40.4L27.16 40.3L8.62 38.61L7.63 38.52L7.72 37.53ZM8.42 41.64L7.42 41.64L7.42 46.06L8.42 46.06L28.05 46.01L28.05 41.64L8.42 41.64Z" fill="url(#paint_linear_0_230_0)" fill-opacity="1.000000" fill-rule="evenodd"/>
</svg>
