<svg width="243" height="234" viewBox="0 0 243 234" fill="none" xmlns="http://www.w3.org/2000/svg">
<g filter="url(#filter0_d_100_161)">
<rect x="32" y="13" width="178.117" height="169.321" rx="84.6605" fill="white"/>
<path d="M109.232 121.75C108.251 128.605 102.355 133.875 95.229 133.875C88.1026 133.875 82.207 128.605 81.2264 121.75H77.0415V73.25C77.0415 71.0179 78.851 69.2084 81.0832 69.2084H137.667C139.899 69.2084 141.708 71.0179 141.708 73.25V81.3334H153.833L165.958 97.7252V121.75H157.732C156.751 128.605 150.855 133.875 143.729 133.875C136.603 133.875 130.707 128.605 129.726 121.75H109.232ZM133.625 77.2917H85.1248V109.829C87.6923 107.209 91.2708 105.583 95.229 105.583C100.872 105.583 105.743 108.887 108.014 113.667H130.944C131.622 112.24 132.532 110.944 133.625 109.829V77.2917ZM141.708 101.542H157.875V100.39L149.758 89.4167H141.708V101.542ZM143.729 125.792C146.369 125.792 148.614 124.105 149.446 121.75C149.67 121.118 149.792 120.438 149.792 119.729C149.792 116.381 147.077 113.667 143.729 113.667C140.381 113.667 137.667 116.381 137.667 119.729C137.667 120.438 137.788 121.118 138.012 121.75C138.844 124.105 141.089 125.792 143.729 125.792ZM101.292 119.729C101.292 116.381 98.5772 113.667 95.229 113.667C91.8808 113.667 89.1665 116.381 89.1665 119.729C89.1665 120.438 89.2881 121.118 89.5115 121.75C90.3437 124.105 92.5894 125.792 95.229 125.792C97.8687 125.792 100.114 124.105 100.947 121.75C101.17 121.118 101.292 120.438 101.292 119.729Z" fill="black"/>
</g>
<defs>
<filter id="filter0_d_100_161" x="0" y="0" width="242.117" height="233.321" filterUnits="userSpaceOnUse" color-interpolation-filters="sRGB">
<feFlood flood-opacity="0" result="BackgroundImageFix"/>
<feColorMatrix in="SourceAlpha" type="matrix" values="0 0 0 0 0 0 0 0 0 0 0 0 0 0 0 0 0 0 127 0" result="hardAlpha"/>
<feOffset dy="19"/>
<feGaussianBlur stdDeviation="16"/>
<feComposite in2="hardAlpha" operator="out"/>
<feColorMatrix type="matrix" values="0 0 0 0 0 0 0 0 0 0 0 0 0 0 0 0 0 0 0.5 0"/>
<feBlend mode="normal" in2="BackgroundImageFix" result="effect1_dropShadow_100_161"/>
<feBlend mode="normal" in="SourceGraphic" in2="effect1_dropShadow_100_161" result="shape"/>
</filter>
</defs>
</svg>
