<svg width="243" height="234" viewBox="0 0 243 234" fill="none" xmlns="http://www.w3.org/2000/svg">
<g filter="url(#filter0_d_100_134)">
<rect x="32" y="13" width="178.117" height="169.321" rx="84.6605" fill="white"/>
<path d="M131.933 86.2861H157.785C162.247 86.2861 165.863 89.8488 165.863 94.2435V102.616C165.863 103.656 165.657 104.685 165.255 105.646L152.756 135.546C152.133 137.037 150.658 138.009 149.021 138.009H81.0392C78.8085 138.009 77 136.228 77 134.031V94.2435C77 92.0462 78.8085 90.2649 81.0392 90.2649H95.1033C96.4157 90.2649 97.6463 89.6367 98.4032 88.5806L120.431 57.8423C121.006 57.0391 122.091 56.7705 122.984 57.2102L130.312 60.819C134.559 62.9112 136.753 67.6362 135.582 72.1697L131.933 86.2861ZM101.236 96.581V130.052H146.316L157.785 102.616V94.2435H131.933C126.663 94.2435 122.804 89.3535 124.104 84.323L127.753 70.2066C127.987 69.2998 127.548 68.3548 126.699 67.9364L124.028 66.6212L105.003 93.1695C103.994 94.5781 102.703 95.7327 101.236 96.581ZM93.157 98.2222H85.0785V130.052H93.157V98.2222Z" fill="#1C171A"/>
</g>
<defs>
<filter id="filter0_d_100_134" x="0" y="0" width="242.117" height="233.321" filterUnits="userSpaceOnUse" color-interpolation-filters="sRGB">
<feFlood flood-opacity="0" result="BackgroundImageFix"/>
<feColorMatrix in="SourceAlpha" type="matrix" values="0 0 0 0 0 0 0 0 0 0 0 0 0 0 0 0 0 0 127 0" result="hardAlpha"/>
<feOffset dy="19"/>
<feGaussianBlur stdDeviation="16"/>
<feComposite in2="hardAlpha" operator="out"/>
<feColorMatrix type="matrix" values="0 0 0 0 0 0 0 0 0 0 0 0 0 0 0 0 0 0 0.5 0"/>
<feBlend mode="normal" in2="BackgroundImageFix" result="effect1_dropShadow_100_134"/>
<feBlend mode="normal" in="SourceGraphic" in2="effect1_dropShadow_100_134" result="shape"/>
</filter>
</defs>
</svg>
