<svg width="108" height="92" viewBox="0 0 108 92" fill="none" xmlns="http://www.w3.org/2000/svg">
<mask id="mask0_98_78" style="mask-type:luminance" maskUnits="userSpaceOnUse" x="0" y="-8" width="108" height="100">
<path d="M0 -8.00002H107.919V91.049H0V-8.00002Z" fill="white"/>
</mask>
<g mask="url(#mask0_98_78)">
<path d="M52.3717 64.4581V32.0529C52.3717 30.2357 51.9615 28.4401 51.1694 26.7899L51.1008 26.6466C49.9397 24.2277 48.0084 22.2248 45.5858 20.9273L43.1337 19.6139L39.5829 21.4258C37.1946 22.6446 35.2577 24.5433 34.0384 26.8612C33.1316 28.5852 32.6503 30.4868 32.6323 32.4184V37.4776" stroke="white" stroke-width="3.72223" stroke-miterlimit="10"/>
<path d="M54.0015 18.6163C55.6023 18.6194 57.2028 18.6222 58.8036 18.6252C61.0887 18.6291 63.3412 19.0678 65.3867 19.9066C68.1362 21.0346 70.3944 22.8376 71.851 25.0683L74.0162 28.3848L72.4779 30.6919C70.9576 32.9715 68.6002 34.7948 65.7456 35.8992L65.5768 35.9645C63.6293 36.7178 61.5077 37.1141 59.3579 37.1259L54 37.1558" stroke="white" stroke-width="3.72223" stroke-miterlimit="10"/>
<path d="M56.5602 18.5907L56.1152 64.4203" stroke="white" stroke-width="3.72223" stroke-miterlimit="10"/>
<path d="M43.6279 53.656H64.6556" stroke="white" stroke-width="3.72223" stroke-miterlimit="10"/>
</g>
</svg>
