<svg width="243" height="234" viewBox="0 0 243 234" fill="none" xmlns="http://www.w3.org/2000/svg">
<g filter="url(#filter0_d_100_167)">
<rect x="32" y="13" width="178.117" height="169.321" rx="84.6605" fill="white"/>
<path d="M121 141.083C137.223 141.083 150.375 127.932 150.375 111.708C150.375 108.318 149.473 105.063 148.417 102.033C141.889 108.483 136.928 111.708 133.533 111.708C149.182 84.2917 140.583 72.5417 117.083 56.875C119.042 76.4564 106.132 85.3639 100.875 90.31C95.1808 95.6676 91.625 103.273 91.625 111.708C91.625 127.932 104.777 141.083 121 141.083ZM123.778 71.5037C136.475 82.2757 136.536 90.6457 126.73 107.825C123.75 113.047 127.52 119.542 133.533 119.542C136.23 119.542 138.954 118.755 141.832 117.212C139.4 126.443 130.995 133.25 121 133.25C109.103 133.25 99.4583 123.606 99.4583 111.708C99.4583 105.68 101.937 100.066 106.243 96.015C106.737 95.5509 109.24 93.3317 109.347 93.2358C111.007 91.7416 112.375 90.4263 113.726 88.979C118.545 83.819 122.007 78.0889 123.778 71.5037Z" fill="black"/>
</g>
<defs>
<filter id="filter0_d_100_167" x="0" y="0" width="242.117" height="233.321" filterUnits="userSpaceOnUse" color-interpolation-filters="sRGB">
<feFlood flood-opacity="0" result="BackgroundImageFix"/>
<feColorMatrix in="SourceAlpha" type="matrix" values="0 0 0 0 0 0 0 0 0 0 0 0 0 0 0 0 0 0 127 0" result="hardAlpha"/>
<feOffset dy="19"/>
<feGaussianBlur stdDeviation="16"/>
<feComposite in2="hardAlpha" operator="out"/>
<feColorMatrix type="matrix" values="0 0 0 0 0 0 0 0 0 0 0 0 0 0 0 0 0 0 0.5 0"/>
<feBlend mode="normal" in2="BackgroundImageFix" result="effect1_dropShadow_100_167"/>
<feBlend mode="normal" in="SourceGraphic" in2="effect1_dropShadow_100_167" result="shape"/>
</filter>
</defs>
</svg>
