<svg width="42.000000" height="42.000000" viewBox="0 0 42 42" fill="none" xmlns="http://www.w3.org/2000/svg" xmlns:xlink="http://www.w3.org/1999/xlink">
	<desc>
			Created with Pixso.
	</desc>
	<defs>
		<clipPath id="clip0_207">
			<rect id="632e0a0cf43185c91cf569ed_branding-design-icon.svg" width="42.000000" height="42.000000" transform="translate(0.000000 -0.015625)" fill="white" fill-opacity="0"/>
		</clipPath>
		<linearGradient id="paint_linear_0_208_0" x1="21.025892" y1="25.844971" x2="21.025892" y2="40.667038" gradientUnits="userSpaceOnUse">
			<stop stop-color="#6000DB"/>
			<stop offset="1.000000" stop-color="#4600A0"/>
		</linearGradient>
		<linearGradient id="paint_linear_0_209_0" x1="15.669455" y1="15.771156" x2="26.383150" y2="26.251947" gradientUnits="userSpaceOnUse">
			<stop stop-color="#6000DB"/>
			<stop offset="1.000000" stop-color="#4600A0"/>
		</linearGradient>
		<linearGradient id="paint_linear_0_210_0" x1="0.933594" y1="21.012356" x2="16.085047" y2="21.012356" gradientUnits="userSpaceOnUse">
			<stop stop-color="#6000DB"/>
			<stop offset="1.000000" stop-color="#4600A0"/>
		</linearGradient>
		<linearGradient id="paint_linear_0_211_0" x1="7.214111" y1="34.626236" x2="9.805235" y2="34.626236" gradientUnits="userSpaceOnUse">
			<stop stop-color="#6000DB"/>
			<stop offset="1.000000" stop-color="#4600A0"/>
		</linearGradient>
		<linearGradient id="paint_linear_0_211_1" x1="7.214111" y1="34.626236" x2="9.805235" y2="34.626236" gradientUnits="userSpaceOnUse">
			<stop stop-color="#6000DB"/>
			<stop offset="1.000000" stop-color="#4600A0"/>
		</linearGradient>
	</defs>
	<g clip-path="url(#clip0_207)">
		<path id="Vector" d="M41.12 40.66L41.12 25.84L0.93 25.84L0.93 40.66L41.12 40.66Z" fill="#000000" fill-opacity="1.000000" fill-rule="nonzero"/>
		<path id="Vector" d="M41.12 40.66L0.93 40.66L0.93 25.84L41.12 25.84L41.12 40.66Z" stroke="url(#paint_linear_0_208_0)" stroke-opacity="1.000000" stroke-width="1.200000"/>
		<path id="Vector" d="M40.59 12.35L29.87 1.87L1.46 29.67L12.17 40.15L40.59 12.35Z" fill="#000000" fill-opacity="1.000000" fill-rule="nonzero"/>
		<path id="Vector" d="M40.59 12.35L12.17 40.15L1.46 29.67L29.87 1.87L40.59 12.35Z" stroke="url(#paint_linear_0_209_0)" stroke-opacity="1.000000" stroke-width="1.200000"/>
		<path id="Vector" d="M16.08 1.35L0.93 1.35L0.93 40.66L16.08 40.66L16.08 1.35Z" fill="#000000" fill-opacity="1.000000" fill-rule="nonzero"/>
		<path id="Vector" d="M16.08 1.35L16.08 40.66L0.93 40.66L0.93 1.35L16.08 1.35Z" stroke="url(#paint_linear_0_210_0)" stroke-opacity="1.000000" stroke-width="1.200000"/>
		<path id="Vector" d="M8.5 35.89C9.22 35.89 9.8 35.32 9.8 34.62C9.8 33.92 9.22 33.35 8.5 33.35C7.79 33.35 7.21 33.92 7.21 34.62C7.21 35.32 7.79 35.89 8.5 35.89Z" fill="url(#paint_linear_0_211_0)" fill-opacity="1.000000" fill-rule="nonzero"/>
		<path id="Vector" d="M8.5 35.89C7.79 35.89 7.21 35.32 7.21 34.62C7.21 33.92 7.79 33.35 8.5 33.35C9.22 33.35 9.8 33.92 9.8 34.62C9.8 35.32 9.22 35.89 8.5 35.89Z" stroke="url(#paint_linear_0_211_1)" stroke-opacity="1.000000" stroke-width="1.000000"/>
	</g>
</svg>
