<svg width="81.000000" height="78.000000" viewBox="0 0 81 78" fill="none" xmlns="http://www.w3.org/2000/svg" xmlns:xlink="http://www.w3.org/1999/xlink">
	<desc>
			Created with Pixso.
	</desc>
	<defs/>
	<path id="path" d="M40.5 0C18.12 0 0 17.89 0 39.98C0 57.68 11.59 72.62 27.69 77.92C29.71 78.27 30.47 77.07 30.47 76.02C30.47 75.07 30.42 71.92 30.42 68.57C20.25 70.42 17.61 66.12 16.8 63.87C16.35 62.72 14.37 59.17 12.65 58.23C11.23 57.48 9.21 55.63 12.6 55.58C15.79 55.53 18.07 58.48 18.83 59.67C22.47 65.72 28.29 64.02 30.62 62.97C30.98 60.37 32.04 58.63 33.21 57.63C24.19 56.63 14.78 53.18 14.78 37.88C14.78 33.53 16.35 29.93 18.93 27.14C18.52 26.14 17.11 22.04 19.33 16.54C19.33 16.54 22.73 15.49 30.47 20.64C33.71 19.74 37.15 19.29 40.6 19.29C44.04 19.29 47.48 19.74 50.72 20.64C58.47 15.44 61.86 16.54 61.86 16.54C64.09 22.04 62.67 26.14 62.26 27.14C64.85 29.93 66.41 33.48 66.41 37.88C66.41 53.23 56.95 56.63 47.94 57.63C49.41 58.88 50.67 61.27 50.67 65.02C50.67 70.37 50.62 74.67 50.62 76.02C50.62 77.07 51.38 78.32 53.4 77.92C69.89 72.42 80.99 57.16 81 39.98C81 17.89 62.87 0 40.5 0Z" fill="#FFFFFF" fill-opacity="1.000000" fill-rule="nonzero"/>
</svg>
